<svg xmlns="http://www.w3.org/2000/svg" data-name="Layer 1" viewBox="0 0 512 512"><path d="M406.303 416.056h-45.48a3 3 0 0 1 0-6h45.48a3 3 0 0 1 0 6ZM149.913 217.576s-1.44-6.12 15.48-11.52 26.28-11.88 28.08-19.44c0 0 3.96 19.44 11.16 23.04 0 0 9-28.08-11.88-38.16s-44.64 4.32-54.36 23.04-7.92 22.32-18 33.84c-6.54 7.474-53.64 33.48-16.92 61.92 0 0 25.92-37.8 40.32-34.92 0 0 4.985-21.65 4.292-24.145-.67-2.416-14.364-12.79-9.835-23.414a3.92 3.92 0 0 1 2.085-2.159c2.083-.829 5.913-.174 9.578 11.918Z"/><path d="M162.982 284.95c-4.96.001-11.399-9.634-19.65-29.382a.5.5 0 0 1 .922-.384c10.342 24.75 16.15 29.284 19.221 28.722 4.603-.842 6.049-13.876 6.218-18.827a33.399 33.399 0 0 1 1.957-14.332.495.495 0 0 1 .57-.3c7.9 1.738 14.496.48 19.6-3.737 12.87-10.637 12.32-36.777 12.312-37.04a.5.5 0 0 1 .487-.514.52.52 0 0 1 .513.487c.03 1.092.573 26.887-12.674 37.837-5.26 4.347-11.998 5.703-20.028 4.035a33.383 33.383 0 0 0-1.74 13.534c-.024.823-.703 18.683-7.035 19.84a3.774 3.774 0 0 1-.673.061Z"/><path d="M187.68 230.377a6.723 6.723 0 0 1-5.541-3.041.5.5 0 0 1 .828-.56 5.75 5.75 0 0 0 3.415 2.432 3.857 3.857 0 0 0 2.975-.29 3.949 3.949 0 0 0 1.465-2.68 7.697 7.697 0 0 0-.469-4.182 31.565 31.565 0 0 1-.608-2.207c-.559-2.433-1.324-5.763.027-8.948a8.816 8.816 0 0 1 5.359-5.084 8.233 8.233 0 0 1 5.243.253.5.5 0 0 1-.363.932 7.215 7.215 0 0 0-4.597-.226 7.817 7.817 0 0 0-4.72 4.513c-1.226 2.889-.503 6.037.026 8.335.187.815.401 1.52.59 2.14a8.585 8.585 0 0 1 .493 4.67 4.884 4.884 0 0 1-1.896 3.32 4.001 4.001 0 0 1-2.228.623ZM185.673 208.258a.5.5 0 0 1-.422-.232c-3.639-5.7-12.625-2.238-12.715-2.204a.5.5 0 1 1-.367-.93c.098-.04 9.848-3.79 13.925 2.597a.5.5 0 0 1-.421.769Z"/><ellipse cx="180.213" cy="216.316" rx="3.78" ry="2.34" transform="rotate(-81.763 180.213 216.316)"/><ellipse cx="197.243" cy="218.781" rx="3.78" ry="2.34" transform="rotate(-81.763 197.243 218.781)"/><path d="m180.753 236.556-.044-.002c-3.816-.335-6.378-1.559-7.615-3.635a7.223 7.223 0 0 1-.24-6.062.5.5 0 0 1 .918.397c-.012.028-1.195 2.851.186 5.16 1.064 1.78 3.365 2.838 6.838 3.144a.5.5 0 0 1-.043.998ZM172.113 250.396a26.103 26.103 0 0 1-17.16-9.6 37.937 37.937 0 0 0 15.177 22.868 32.053 32.053 0 0 1 1.983-13.268Z"/><path d="M145.342 344.237c-8.563 0-15.596-.04-17.423-.162a1.907 1.907 0 0 1-1.51-.905c-2.557-3.916 3.273-21.054 4.687-25.05-8.052-.778-35.743-13.608-36.954-14.17a.5.5 0 0 1-.2-.738l9.12-13.2a.5.5 0 0 1 .822.568l-8.782 12.711c4.109 1.889 30.422 13.865 36.69 13.865a.5.5 0 0 1 .47.67c-2.101 5.816-7.1 21.606-5.015 24.797a.905.905 0 0 0 .739.454c5.121.34 53.255.027 57.297.001 1.458-2.207 13.255-20.337 11.318-25.898-2.132-6.12-3.58-9.867-3.595-9.904a.5.5 0 0 1 .207-.608l7.559-4.581c-1.306-3.216-10.99-25.7-30.905-37.997a.5.5 0 0 1 .526-.852c21.672 13.383 31.372 38.628 31.467 38.882a.5.5 0 0 1-.208.604l-7.563 4.583a372.69 372.69 0 0 1 3.456 9.545c2.216 6.362-11.013 26.164-11.577 27.003a.5.5 0 0 1-.412.221c-1.405.01-23.665.161-40.214.161Z"/><path d="m142.128 292.696-9.84 24.96-6.766-1.54 16.606-23.42zM193.113 307.456l-10.62-17.7 13.788 15.78-3.168 1.92z"/><path d="M243.16 399.407c-3.262 0-6.466-2.174-7.526-2.967a4.86 4.86 0 0 1-4.017 1.513c-4.382-.542-8.346-7.572-10.97-12.224a34.415 34.415 0 0 0-2.009-3.327c-.89-1.143-3.421.286-6.626 2.098-4.103 2.318-9.74 5.497-15.748 5.296l-1.973-.063c-43.95-1.367-118.547-5.03-124.36-14.21-6.924-10.93 26.259-68.168 27.675-70.6a.5.5 0 0 1 .864.505c-.344.59-34.296 59.138-27.695 69.56 4.066 6.42 49.097 11.43 123.547 13.745l1.975.063c5.737.176 11-2.78 15.223-5.166 3.766-2.13 6.486-3.67 7.907-1.841a33.647 33.647 0 0 1 2.091 3.45c2.525 4.476 6.34 11.241 10.222 11.722a4.034 4.034 0 0 0 3.49-1.53.498.498 0 0 1 .68-.041c.05.04 4.97 4.022 8.91 2.77 2.015-.644 3.471-2.58 4.33-5.755a.5.5 0 0 1 .774-.274c.053.037 5.265 3.733 9.012 2.11 2.049-.892 3.33-3.249 3.81-7.006a23.426 23.426 0 0 0-1.777-12.01c-2.041-4.845-6.293-13.643-11.83-18.12a.5.5 0 0 1 .537-.836c.62.31 15.256 7.658 21.36 13.403 3.151 2.968 6.258 3.119 7.937 1.95 1.893-1.317 2.199-4.195.799-7.512-3.381-8.008-23.86-23.896-27.279-24.73a.5.5 0 0 1-.189-.879c.075-.059 7.505-5.892 8.537-11.397.68-3.631.232-6.434-1.23-7.69-1.203-1.033-3.112-1.102-5.674-.206-3.167 1.108-6.43 3.312-9.586 5.442-3.979 2.686-8.092 5.463-12.263 6.277-4.744.926-9.563 1.489-13.08 1.901-2.047.24-3.663.429-4.749.62-6.33 1.117-21.765 4.377-28.366 10.495a.5.5 0 0 1-.68-.734c6.796-6.298 22.455-9.612 28.872-10.745 1.115-.197 2.744-.388 4.806-.629 3.502-.41 8.299-.972 13.006-1.89 3.971-.775 7.999-3.494 11.894-6.124 3.209-2.166 6.527-4.406 9.816-5.556 2.924-1.025 5.163-.892 6.655.39 1.767 1.517 2.321 4.583 1.562 8.633-.921 4.913-6.3 9.824-8.228 11.45 5.383 2.511 23.81 17.197 27.097 24.984 1.906 4.514.656 7.465-1.15 8.72-2.011 1.399-5.633 1.308-9.193-2.042-4.303-4.05-13.228-9.065-17.982-11.602 4.161 4.552 7.407 11.017 9.523 16.039a24.438 24.438 0 0 1 1.847 12.525c-.527 4.132-2.01 6.755-4.406 7.796-3.512 1.528-7.853-.847-9.41-1.829-.979 3.135-2.591 5.08-4.8 5.784a6.422 6.422 0 0 1-1.962.294Z"/><path d="M235.593 396.275a.49.49 0 0 1-.188-.037.5.5 0 0 1-.276-.651c1.838-4.524-6.88-19.259-10.393-24.555a.5.5 0 1 1 .833-.553c.528.795 12.898 19.548 10.487 25.485a.5.5 0 0 1-.463.311ZM249.632 393.036a.5.5 0 0 1-.498-.458c-1.055-12.664-13.526-29.094-13.652-29.259a.5.5 0 1 1 .794-.607c.52.68 12.775 16.826 13.854 29.782a.5.5 0 0 1-.456.54.598.598 0 0 1-.042.002ZM216.538 333.12a.5.5 0 0 1-.429-.242l-17.461-28.919a.5.5 0 0 1 .856-.518l17.462 28.92a.5.5 0 0 1-.428.758ZM73.953 402.92a.524.524 0 0 1-.133-.017.5.5 0 0 1-.35-.615l6.247-22.669a.5.5 0 1 1 .964.266l-6.246 22.669a.5.5 0 0 1-.482.367ZM196.28 402.92a.5.5 0 0 1-.5-.5v-13.124a.5.5 0 1 1 1 0v13.125a.5.5 0 0 1-.5.5Z"/><path d="M462.993 402.92H61.233a.5.5 0 1 1 0-1h401.76a.5.5 0 0 1 0 1Z"/><path fill="#fed44a" d="M434.166 386.296H301.393l20-96h131.94a2 2 0 0 1 1.958 2.408l-19.167 92a2 2 0 0 1-1.958 1.592Z"/><path d="m313.282 291.888-19.167 92a2 2 0 0 0 1.958 2.408h5.32l20-96h-6.153a2 2 0 0 0-1.958 1.592Z"/><path fill="#2ca68f" d="M417.301 416.056h-31.748l-20-57.6h33.137a2 2 0 0 1 1.89 1.344l18.61 53.6a2 2 0 0 1-1.889 2.656Z"/><path d="m359.773 361.112 18.61 53.6a2 2 0 0 0 1.89 1.344h5.28l-20-57.6h-3.89a2 2 0 0 0-1.89 2.656Z"/><rect width="14.4" height="9.12" x="371.393" y="333.736" rx="4.56"/><path fill="#fd6f41" d="M291.723 124.942h-61.687a2 2 0 0 0-2 2v44.24a2 2 0 0 0 2 2h38.244l7.742 12.327a1 1 0 0 0 1.72-.045l6.858-12.282h7.123a2 2 0 0 0 2-2v-44.24a2 2 0 0 0-2-2Z"/><path fill="#c1e5d9" d="M413.943 166.534h-93.91a2 2 0 0 0-2 2v52.286a2 2 0 0 0 2 2H390.2l6.61 10.521a1 1 0 0 0 1.719-.044l5.85-10.477h9.563a2 2 0 0 0 2-2v-52.286a2 2 0 0 0-2-2Z"/><path d="M245.76 152.977c3.86 0 3.867-6 0-6-3.861 0-3.867 6 0 6ZM260.88 152.977c3.86 0 3.867-6 0-6-3.861 0-3.867 6 0 6ZM276 152.977c3.86 0 3.867-6 0-6-3.861 0-3.867 6 0 6ZM403.16 186.977H368.6a1 1 0 0 1 0-2h34.56a1 1 0 0 1 0 2ZM403.16 196.094H368.6a1 1 0 0 1 0-2h34.56a1 1 0 0 1 0 2ZM403.16 205.21H368.6a1 1 0 0 1 0-2h34.56a1 1 0 0 1 0 2ZM357.48 210.014h-26.24a3.003 3.003 0 0 1-3-3v-23.84a3.003 3.003 0 0 1 3-3h26.24a3.003 3.003 0 0 1 3 3v23.84a3.003 3.003 0 0 1-3 3Zm-26.24-27.84a1.001 1.001 0 0 0-1 1v23.84a1.001 1.001 0 0 0 1 1h26.24a1.001 1.001 0 0 0 1-1v-23.84a1.001 1.001 0 0 0-1-1Z"/><path fill="#2ca68f" d="M363.36 200.655h-61.52a2 2 0 0 0-2 2v42.398a2 2 0 0 0 2 2h12.46l6.675 10.626a1 1 0 0 0 1.72-.045l5.908-10.581h34.757a2 2 0 0 0 2-2v-42.398a2 2 0 0 0-2-2Z"/><path d="M349.88 216.062h-34.56a1 1 0 0 1 0-2h34.56a1 1 0 0 1 0 2ZM349.88 225.178h-34.56a1 1 0 0 1 0-2h34.56a1 1 0 1 1 0 2ZM349.88 234.295h-34.56a1 1 0 0 1 0-2h34.56a1 1 0 0 1 0 2Z"/><path fill="#fed44a" d="M49.007 339.654h56.137v6.404H49.007z"/><path fill="#674cfb" d="M403.16 267.333h56.137v6.404H403.16z"/><path fill="#fd6f41" d="M105.757 146.775h56.137v6.404h-56.137z"/><path d="M349.88 129.534a4.592 4.592 0 1 1 4.592-4.592 4.597 4.597 0 0 1-4.592 4.592Zm0-8.184a3.592 3.592 0 1 0 3.592 3.592 3.597 3.597 0 0 0-3.592-3.592ZM225.152 256.822a4.592 4.592 0 1 1 4.593-4.593 4.598 4.598 0 0 1-4.593 4.593Zm0-8.184a3.592 3.592 0 1 0 3.593 3.591 3.596 3.596 0 0 0-3.593-3.591Z"/><path fill="#fd6f41" d="m434.888 240.216-7.32-2 5.32-6.32 2 8.32z"/><path fill="#fed44a" d="m73.116 283.291-7.32-2 5.32-6.32 2 8.32zM284.807 99.695l-7.32-2 5.32-6.32 2 8.32z"/><path fill="#674cfb" d="m137.485 176.5-7.32-2 5.32-6.32 2 8.32z"/><path fill="#2ca68f" d="m265.773 420.625-7.32-2 5.32-6.32 2 8.32z"/></svg>